<svg xmlns="http://www.w3.org/2000/svg" width="86" height="28" viewBox="0 0 86 28"><path fill="#231F20" fill-rule="evenodd" d="M14 0c7.732 0 14 6.268 14 14s-6.268 14-14 14S0 21.732 0 14 6.268 0 14 0zm.417 20.239h-.06c-.21 0-1.083.015-1.787.37-.217.109-.44.264-.634.426a2.176 2.176 0 0 0-.395.433c-.464.642-.48 1.361-.48 1.624 0 .812.24 1.284.434 1.578.155.247.325.417.402.495.124.108.232.193.371.286.387.247 1.021.549 2.104.549.317 0 1.895 0 2.784-1.044a3.61 3.61 0 0 0 .387-.588l-.82-.17c-.093.162-.17.278-.302.418-.573.627-1.465.695-1.837.703h-.235a4.167 4.167 0 0 1-.51-.038c-.233-.039-1.037-.186-1.524-.82-.41-.534-.433-1.152-.433-1.377 0-.773.294-1.206.502-1.43.132-.147.248-.24.31-.279.634-.448 1.477-.456 1.693-.456.774 0 1.323.232 1.578.394.178.109.364.279.487.449.054.077.1.155.147.24l.828-.178c-.07-.124-.201-.364-.449-.627a3.09 3.09 0 0 0-.564-.456c-.737-.447-1.668-.497-1.997-.502zm-.092-8.67c-1.291 0-2.088.549-2.459.897a2.36 2.36 0 0 0-.356.425 2.799 2.799 0 0 0-.448 1.524c0 .835.348 1.407.533 1.655.333.456 1.122 1.214 2.591 1.214.998 0 1.71-.34 2.019-.557a2.81 2.81 0 0 0 .363-.317v.75h.673v-2.877h-3.055v.65h2.405c-.038.27-.07.456-.216.704-.41.673-1.26.997-2.019.997-.286 0-1.33-.046-1.972-.827-.317-.379-.495-.936-.495-1.423 0-.959.557-1.67 1.447-1.98.448-.155.873-.17 1.044-.17.928 0 1.515.402 1.778.642.163.155.24.286.294.363l.758-.232c-.147-.27-.2-.332-.325-.464a2.409 2.409 0 0 0-.734-.549 3.954 3.954 0 0 0-1.826-.425zM14.658 3h-.827L11 8.46h.874l.665-1.346h3.356l.666 1.346h.897L14.658 3zm-.433.781 1.338 2.707h-2.7l1.362-2.707zM35.26 21.54l1.72-3.48h8.68l1.72 3.48h2.32L42.46 7.42h-2.14L33 21.54h2.26zm9.54-5.1h-6.98l3.52-7 3.46 7zm13.94 5.42c2.58 0 4.42-.88 5.22-1.44.34-.24.64-.52.94-.82v1.94h1.74V14.1h-7.9v1.68h6.22c-.1.7-.18 1.18-.56 1.82-1.06 1.74-3.26 2.58-5.22 2.58-.74 0-3.44-.12-5.1-2.14-.82-.98-1.28-2.42-1.28-3.68 0-2.48 1.44-4.32 3.74-5.12 1.16-.4 2.26-.44 2.7-.44 2.4 0 3.92 1.04 4.6 1.66.42.4.62.74.76.94l1.96-.6c-.38-.7-.52-.86-.84-1.2-.32-.36-.88-.9-1.9-1.42-2-1.04-3.92-1.1-4.72-1.1-3.34 0-5.4 1.42-6.36 2.32-.36.34-.64.68-.92 1.1-1.06 1.6-1.16 3.26-1.16 3.94 0 2.16.9 3.64 1.38 4.28.86 1.18 2.9 3.14 6.7 3.14zm26.02-2.66c.28-.34.54-.7 1-1.52l-2.12-.44c-.24.42-.44.72-.78 1.08-1.568 1.717-4.06 1.814-4.905 1.82h-.304a11.22 11.22 0 0 1-1.471-.1c-.6-.1-2.68-.48-3.94-2.12-1.06-1.38-1.12-2.98-1.12-3.56 0-2 .76-3.12 1.3-3.7.34-.38.64-.62.8-.72 1.64-1.16 3.82-1.18 4.38-1.18 2 0 3.42.6 4.08 1.02.46.28.94.72 1.26 1.16.14.2.26.4.38.62l2.14-.46c-.18-.32-.52-.94-1.16-1.62-.6-.62-1.18-1-1.46-1.18C80.8 7.06 78.18 7 77.52 7c-.54 0-2.8.04-4.62.96-.56.28-1.14.68-1.64 1.1-.56.5-.82.82-1.02 1.12-1.2 1.66-1.24 3.52-1.24 4.2 0 2.1.62 3.32 1.12 4.08.4.64.84 1.08 1.04 1.28.32.28.6.5.96.74 1 .64 2.64 1.42 5.44 1.42h.151c1.083-.007 4.867-.138 7.049-2.7z"/></svg>