<svg xmlns="http://www.w3.org/2000/svg" width="116" height="140" fill="none" preserveAspectRatio="xMidYMid meet" version="1.0" viewBox="0 0 87 105"><g stroke="none"><path d="M361 979 c-77 -83 -74 -106 4 -29 l55 54 0 -307 c0 -266 2 -307 15 -307 13 0 15 41 15 307 l0 307 55 -54 c30 -29 58 -51 61 -47 8 8 -116 145 -131 145 -5 0 -39 -31 -74 -69z" transform="translate(0.000000,105.000000) scale(0.100000,-0.100000)"/><path d="M63 790 c-61 -37 -63 -48 -63 -377 0 -278 1 -300 20 -330 37 -62 44 -63 417 -63 321 0 340 1 371 20 58 36 62 57 62 375 0 318 -4 339 -62 375 -36 22 -151 29 -163 10 -4 -6 15 -10 50 -10 77 0 122 -21 140 -64 22 -51 22 -571 0 -622 -25 -61 -43 -64 -400 -64 -357 0 -375 3 -400 64 -22 51 -22 571 0 622 18 43 63 64 140 64 30 0 55 5 55 10 0 6 -29 10 -67 10 -50 0 -77 -5 -100 -20z" transform="translate(0.000000,105.000000) scale(0.100000,-0.100000)"/></g></svg>