<svg xmlns="http://www.w3.org/2000/svg" width="255" height="28" viewBox="0 0 255 28"><path fill="#000" fill-rule="nonzero" d="m37.808 19.632 1.376-2.784h6.944l1.376 2.784h1.856L43.568 8.336h-1.712L36 19.632h1.808zm7.632-4.08h-5.584l2.816-5.6 2.768 5.6zm6.864 4.08v-4.528h5.456l3.824 4.528h2.096l-4.176-4.784c.64-.096.944-.192 1.232-.304 1.696-.704 1.824-2.288 1.824-2.896 0-1.552-.864-2.736-2.384-3.136-.48-.128-.832-.176-1.792-.176h-7.696v11.296h1.616zm5.74-5.857-5.756.001V9.68h6.208c.88 0 1.632.08 2.112.928.272.464.288.896.288 1.104 0 .656-.256 1.04-.416 1.232-.585.75-1.564.825-2.435.831zm12.068 5.857V9.68h4.624V8.336H63.904V9.68h4.608v9.952h1.6zm17.472.256c2.064 0 3.536-.704 4.176-1.152.272-.192.512-.416.752-.656v1.552h1.392V13.68h-6.32v1.344h4.976c-.08.56-.144.944-.448 1.456-.848 1.392-2.608 2.064-4.176 2.064-.592 0-2.752-.096-4.08-1.712-.656-.784-1.024-1.936-1.024-2.944 0-1.984 1.152-3.456 2.992-4.096a6.876 6.876 0 0 1 2.16-.352c1.92 0 3.136.832 3.68 1.328.336.32.496.592.608.752l1.568-.48c-.304-.56-.416-.688-.672-.96-.256-.288-.704-.72-1.52-1.136-1.6-.832-3.136-.88-3.776-.88-2.672 0-4.32 1.136-5.088 1.856a4.883 4.883 0 0 0-.736.88c-.848 1.28-.928 2.608-.928 3.152 0 1.728.72 2.912 1.104 3.424.688.944 2.32 2.512 5.36 2.512zm9.216-.256 1.376-2.784h6.944l1.376 2.784h1.856L102.56 8.336h-1.712l-5.856 11.296H96.8zm7.632-4.08h-5.584l2.816-5.6 2.768 5.6zm14.368 4.08v-1.376h-7.504v-9.92h-1.6v11.296h9.104zm10.336 0v-1.376h-7.504v-9.92h-1.6v11.296h9.104zm12.064 0V18.24h-9.232v-3.808h8.592v-1.344h-8.592v-3.36h8.816V8.336h-10.416v11.296H141.2zm3.44 0v-4.528h5.456l3.824 4.528h2.096l-4.176-4.784c.64-.096.944-.192 1.232-.304 1.696-.704 1.824-2.288 1.824-2.896 0-1.552-.864-2.736-2.384-3.136-.48-.128-.832-.176-1.792-.176h-7.696v11.296h1.616zm5.74-5.857-5.756.001V9.68h6.208c.88 0 1.632.08 2.112.928.272.464.288.896.288 1.104 0 .656-.256 1.04-.416 1.232-.585.75-1.564.825-2.435.831zm12.884 5.857v-4.368l5.728-6.928h-2.048l-4.464 5.536-4.368-5.536h-2.064l5.632 6.896v4.4h1.584zm18.704.288c.656 0 3.92 0 5.76-2.16.224-.272.432-.56.8-1.216l-1.696-.352a4.09 4.09 0 0 1-.624.864c-1.244 1.363-3.216 1.45-3.908 1.456h-.29a8.883 8.883 0 0 1-1.146-.08c-.48-.08-2.144-.384-3.152-1.696-.848-1.104-.896-2.384-.896-2.848 0-1.6.608-2.496 1.04-2.96a3.36 3.36 0 0 1 .64-.576c1.312-.928 3.056-.944 3.504-.944 1.6 0 2.736.48 3.264.816.368.224.752.576 1.008.928.112.16.208.32.304.496l1.712-.368c-.144-.256-.416-.752-.928-1.296-.48-.496-.944-.8-1.168-.944-1.632-.992-3.728-1.04-4.256-1.04-.432 0-2.24.032-3.696.768a6.969 6.969 0 0 0-1.312.88c-.448.4-.656.656-.816.896-.96 1.328-.992 2.816-.992 3.36 0 1.68.496 2.656.896 3.264.32.512.672.864.832 1.024.256.224.48.4.768.592.8.512 2.112 1.136 4.352 1.136zm19.232-.288V18.24h-9.232v-3.808h8.592v-1.344h-8.592v-3.36h8.816V8.336h-10.416v11.296H201.2zm3.36 0-.032-9.344 8.848 9.344h1.568V8.336h-1.536l.048 9.328-8.784-9.328h-1.648v11.296h1.536zm18.224 0V9.68h4.624V8.336h-10.832V9.68h4.608v9.952h1.6zm17.088 0V18.24h-9.232v-3.808h8.592v-1.344h-8.592v-3.36h8.816V8.336H229.04v11.296h10.832zm3.44 0v-4.528h5.456l3.824 4.528h2.096l-4.176-4.784c.64-.096.944-.192 1.232-.304 1.696-.704 1.824-2.288 1.824-2.896 0-1.552-.864-2.736-2.384-3.136-.48-.128-.832-.176-1.792-.176h-7.696v11.296h1.616zm5.74-5.857-5.756.001V9.68h6.208c.88 0 1.632.08 2.112.928.272.464.288.896.288 1.104 0 .656-.256 1.04-.416 1.232-.585.75-1.564.825-2.435.831zM14 0c7.732 0 14 6.268 14 14s-6.268 14-14 14S0 21.732 0 14 6.268 0 14 0zm.417 20.239h-.06c-.21 0-1.083.015-1.787.37-.217.109-.44.264-.634.426a2.175 2.175 0 0 0-.395.433c-.464.642-.48 1.361-.48 1.624 0 .812.24 1.284.434 1.578.155.247.325.417.402.495.124.108.232.193.371.286.387.247 1.021.549 2.104.549.317 0 1.895 0 2.784-1.044a3.61 3.61 0 0 0 .387-.588l-.82-.17c-.093.162-.17.278-.302.418-.573.627-1.465.695-1.837.703h-.235a4.166 4.166 0 0 1-.51-.038c-.233-.039-1.037-.186-1.524-.82-.41-.534-.433-1.152-.433-1.377 0-.773.294-1.206.502-1.43.132-.147.248-.24.31-.279.634-.448 1.477-.456 1.693-.456.774 0 1.323.232 1.578.394.178.109.364.279.487.449.054.077.1.155.147.24l.828-.178c-.07-.124-.201-.364-.449-.627a3.089 3.089 0 0 0-.564-.456c-.737-.447-1.668-.497-1.997-.502zm-.092-8.67c-1.291 0-2.088.549-2.459.897a2.36 2.36 0 0 0-.356.425 2.799 2.799 0 0 0-.448 1.524c0 .835.348 1.407.533 1.655.333.456 1.122 1.214 2.591 1.214.998 0 1.71-.34 2.019-.557a2.81 2.81 0 0 0 .363-.317v.75h.673v-2.877h-3.055v.65h2.405c-.038.27-.07.456-.216.704-.41.673-1.26.998-2.019.998-.286 0-1.33-.047-1.972-.828-.317-.379-.495-.936-.495-1.423 0-.959.557-1.67 1.447-1.98.448-.155.873-.17 1.044-.17.928 0 1.515.402 1.778.642.163.155.24.286.294.363l.758-.232c-.147-.27-.2-.332-.325-.464a2.409 2.409 0 0 0-.734-.549 3.954 3.954 0 0 0-1.826-.425zM14.658 3h-.827L11 8.46h.874l.665-1.346h3.356l.666 1.346h.897L14.658 3zm-.433.781 1.338 2.707h-2.7l1.362-2.707z"/></svg>