<?xml version="1.0" standalone="no"?>
<!DOCTYPE svg PUBLIC "-//W3C//DTD SVG 20010904//EN"
 "http://www.w3.org/TR/2001/REC-SVG-20010904/DTD/svg10.dtd">
<svg version="1.0" xmlns="http://www.w3.org/2000/svg"
 width="510.000000pt" height="56.000000pt" viewBox="0 0 510.000000 56.000000"
 preserveAspectRatio="xMidYMid meet">

<g transform="translate(0.000000,56.000000) scale(0.100000,-0.100000)"
fill="#000000" stroke="none">
<path d="M210 551 c-86 -28 -141 -75 -181 -151 -35 -66 -33 -176 3 -245 53
-101 134 -150 248 -150 114 0 195 49 248 150 38 71 38 179 0 250 -31 60 -67
95 -128 125 -48 24 -147 35 -190 21z m113 -106 c15 -30 22 -55 17 -55 -6 0
-13 7 -16 15 -4 9 -19 15 -40 15 -22 0 -37 -6 -40 -15 -4 -8 -10 -15 -15 -15
-5 0 3 25 18 55 15 30 32 55 38 55 6 0 23 -25 38 -55z m3 -130 c22 -17 16 -19
-18 -6 -37 14 -70 -4 -66 -35 4 -34 27 -49 61 -40 35 8 34 24 0 29 -26 4 -26
4 5 6 27 1 32 -2 32 -22 0 -23 -3 -25 -55 -28 -30 -2 -65 26 -65 53 0 25 35
58 63 58 13 0 32 -7 43 -15z m12 -186 c4 -11 2 -12 -9 -1 -17 15 -61 16 -77 0
-19 -19 -14 -56 9 -68 15 -8 29 -8 51 -1 41 15 47 13 24 -4 -56 -42 -143 17
-108 72 20 32 101 34 110 2z"/>
<path d="M270 461 c-14 -27 -9 -34 18 -29 19 3 19 5 8 27 l-13 24 -13 -22z"/>
<path d="M1690 382 c-20 -9 -44 -33 -55 -54 -18 -34 -19 -40 -5 -79 21 -59 58
-84 125 -83 31 0 60 6 71 15 13 11 18 11 21 2 3 -7 11 -13 19 -13 10 0 14 15
14 60 l0 60 -65 0 c-51 0 -65 -3 -65 -15 0 -11 12 -15 51 -15 43 0 50 -3 45
-16 -3 -9 -6 -17 -6 -20 0 -10 -62 -34 -89 -34 -44 0 -91 44 -91 85 0 47 8 64
41 80 40 21 92 19 123 -6 25 -19 46 -19 46 2 0 15 -80 49 -115 49 -16 0 -46
-8 -65 -18z"/>
<path d="M3580 389 c-39 -16 -69 -49 -76 -84 -7 -41 16 -98 50 -120 57 -38
151 -28 196 20 21 23 22 25 5 25 -10 0 -27 -7 -37 -16 -10 -10 -39 -19 -66
-22 -41 -4 -52 0 -80 23 -26 21 -32 34 -32 65 0 22 8 47 19 61 16 20 28 24 79
24 43 0 65 -5 79 -17 22 -20 47 -24 41 -6 -14 42 -123 71 -178 47z"/>
<path d="M778 280 c-49 -93 -55 -110 -40 -110 11 0 24 11 30 25 11 23 16 25
85 25 69 0 75 -2 85 -25 10 -21 42 -36 42 -20 0 3 -24 52 -52 110 -70 139 -75
139 -150 -5z m106 23 l26 -53 -55 0 -55 0 27 55 c15 30 28 53 29 52 1 -1 13
-26 28 -54z"/>
<path d="M1010 280 c0 -103 1 -110 20 -110 17 0 20 7 20 45 l0 45 51 0 c48 0
54 -3 91 -45 23 -26 48 -45 60 -45 18 0 16 5 -16 40 -39 43 -45 60 -21 60 35
0 46 69 15 100 -17 17 -33 20 -120 20 l-100 0 0 -110z m195 74 c39 -39 -7 -74
-97 -74 l-58 0 0 45 0 45 69 0 c51 0 74 -4 86 -16z"/>
<path d="M1280 380 c0 -5 20 -10 45 -10 l45 0 0 -100 c0 -81 3 -100 15 -100
11 0 15 20 17 98 l3 97 43 3 c23 2 42 7 42 13 0 5 -46 9 -105 9 -63 0 -105 -4
-105 -10z"/>
<path d="M1958 280 c-49 -93 -55 -110 -40 -110 11 0 24 11 30 25 11 23 16 25
85 25 69 0 75 -2 85 -25 10 -21 42 -36 42 -20 0 3 -24 52 -52 110 -70 139 -75
139 -150 -5z m106 23 l26 -53 -55 0 -55 0 27 55 c15 30 28 53 29 52 1 -1 13
-26 28 -54z"/>
<path d="M2190 280 l0 -110 96 0 c71 0 95 3 92 12 -3 8 -28 12 -76 12 l-72 0
0 98 c0 91 -1 98 -20 98 -19 0 -20 -7 -20 -110z"/>
<path d="M2400 280 l0 -110 90 0 c65 0 90 3 90 13 0 8 -21 12 -72 12 l-73 0
-3 98 c-2 77 -6 97 -17 97 -12 0 -15 -20 -15 -110z"/>
<path d="M2610 280 l0 -110 105 0 c87 0 105 3 105 15 0 12 -17 15 -90 15 l-90
0 0 35 0 35 85 0 c69 0 85 3 85 15 0 12 -16 15 -85 15 l-85 0 0 35 0 35 90 0
c53 0 90 4 90 10 0 6 -42 10 -105 10 l-105 0 0 -110z"/>
<path d="M2860 280 c0 -91 3 -110 15 -110 11 0 15 12 15 45 l0 45 55 0 c52 0
55 -2 92 -45 20 -25 45 -45 55 -45 26 0 22 12 -16 50 l-35 33 30 27 c34 33 37
62 9 90 -17 17 -33 20 -120 20 l-100 0 0 -110z m181 80 c11 -6 19 -21 19 -36
0 -32 -36 -46 -109 -42 -53 3 -56 4 -59 31 -6 50 2 57 68 57 34 0 70 -5 81
-10z"/>
<path d="M3130 386 c0 -3 23 -32 50 -65 44 -53 50 -66 50 -106 0 -38 3 -45 20
-45 17 0 20 7 20 45 0 40 6 53 50 106 28 33 50 62 50 65 0 2 -8 4 -18 4 -10 0
-35 -22 -56 -50 -21 -27 -42 -50 -46 -50 -4 0 -25 23 -46 50 -21 28 -46 50
-56 50 -10 0 -18 -2 -18 -4z"/>
<path d="M3810 280 l0 -110 105 0 c87 0 105 3 105 15 0 12 -17 15 -90 15 l-90
0 0 35 0 35 85 0 c69 0 85 3 85 15 0 12 -16 15 -85 15 l-85 0 0 35 0 35 90 0
c53 0 90 4 90 10 0 6 -42 10 -105 10 l-105 0 0 -110z"/>
<path d="M4060 280 c0 -91 3 -110 15 -110 12 0 15 17 15 93 l1 92 87 -93 c48
-51 95 -93 105 -92 15 0 17 12 17 110 0 91 -3 110 -15 110 -12 0 -15 -17 -15
-92 l0 -93 -86 93 c-51 54 -94 92 -105 92 -18 0 -19 -8 -19 -110z"/>
<path d="M4330 380 c0 -5 20 -10 45 -10 l45 0 0 -100 c0 -93 1 -100 20 -100
19 0 20 7 20 100 l0 100 45 0 c25 0 45 5 45 10 0 6 -43 10 -110 10 -67 0 -110
-4 -110 -10z"/>
<path d="M4580 280 l0 -110 111 0 c84 0 110 3 107 13 -3 8 -34 13 -96 15 l-92
3 0 34 0 35 85 0 c69 0 85 3 85 15 0 12 -16 15 -86 15 l-85 0 3 33 3 32 88 3
c124 4 110 22 -18 22 l-105 0 0 -110z"/>
<path d="M4830 280 c0 -103 1 -110 20 -110 17 0 20 7 20 45 l0 45 51 0 c48 0
54 -3 91 -45 23 -26 48 -45 60 -45 18 0 16 5 -16 40 -39 43 -45 60 -21 60 18
0 35 31 35 64 0 43 -33 56 -142 56 l-98 0 0 -110z m195 74 c39 -39 -7 -74 -97
-74 l-58 0 0 45 0 45 69 0 c51 0 74 -4 86 -16z"/>
</g>
</svg>
