<svg xmlns="http://www.w3.org/2000/svg" width="212" height="77" viewBox="0 0 212 77"><path fill="#231F20" fill-rule="nonzero" d="m103.26 17.12 1.72-3.48h8.68l1.72 3.48h2.32L110.46 3h-2.14L101 17.12h2.26zm9.54-5.1h-6.98l3.52-7 3.46 7zm8.58 5.1v-5.66h6.82l4.78 5.66h2.62l-5.22-5.98c.8-.12 1.18-.24 1.54-.38 2.12-.88 2.28-2.86 2.28-3.62 0-1.94-1.08-3.42-2.98-3.92-.6-.16-1.04-.22-2.24-.22h-9.62v14.12h2.02zm7.152-7.32h-7.172V4.68h7.76c1.1 0 2.04.1 2.64 1.16.34.58.36 1.12.36 1.38 0 .82-.32 1.3-.52 1.54-.737.944-1.973 1.033-3.068 1.04zm15.108 7.32V4.68h5.78V3h-13.54v1.68h5.76v12.44h2zm-33.56 28.32c2.58 0 4.42-.88 5.22-1.44.34-.24.64-.52.94-.82v1.94h1.74v-7.44h-7.9v1.68h6.22c-.1.7-.18 1.18-.56 1.82-1.06 1.74-3.26 2.58-5.22 2.58-.74 0-3.44-.12-5.1-2.14-.82-.98-1.28-2.42-1.28-3.68 0-2.48 1.44-4.32 3.74-5.12 1.16-.4 2.26-.44 2.7-.44 2.4 0 3.92 1.04 4.6 1.66.42.4.62.74.76.94l1.96-.6c-.38-.7-.52-.86-.84-1.2-.32-.36-.88-.9-1.9-1.42-2-1.04-3.92-1.1-4.72-1.1-3.34 0-5.4 1.42-6.36 2.32-.36.34-.64.68-.92 1.1-1.06 1.6-1.16 3.26-1.16 3.94 0 2.16.9 3.64 1.38 4.28.86 1.18 2.9 3.14 6.7 3.14zm11.52-.32 1.72-3.48H132l1.72 3.48h2.32L128.8 31h-2.14l-7.32 14.12h2.26zm9.54-5.1h-6.98l3.52-7 3.46 7zm17.96 5.1V43.4h-9.38V31h-2v14.12h11.38zm12.92 0V43.4h-9.38V31h-2v14.12h11.38zm15.08 0v-1.74h-11.54v-4.76h10.74v-1.68h-10.74v-4.2h11.02V31h-13.02v14.12h13.54zm4.3 0v-5.66h6.82l4.78 5.66h2.62l-5.22-5.98c.8-.12 1.18-.24 1.54-.38 2.12-.88 2.28-2.86 2.28-3.62 0-1.94-1.08-3.42-2.98-3.92-.6-.16-1.04-.22-2.24-.22h-9.62v14.12h2.02zm7.152-7.32h-7.172v-5.12h7.76c1.1 0 2.04.1 2.64 1.16.34.58.36 1.12.36 1.38 0 .82-.32 1.3-.52 1.54-.737.944-1.973 1.033-3.068 1.04zm16.128 7.32v-5.46l7.16-8.66h-2.56l-5.58 6.92-5.46-6.92h-2.58l7.04 8.62v5.5h1.98zm-86.92 25.66c.28-.34.54-.7 1-1.52l-2.12-.44c-.24.42-.44.72-.78 1.08-1.568 1.717-4.06 1.814-4.905 1.82h-.304a11.22 11.22 0 0 1-1.471-.1c-.6-.1-2.68-.48-3.94-2.12-1.06-1.38-1.12-2.98-1.12-3.56 0-2 .76-3.12 1.3-3.7.34-.38.64-.62.8-.72 1.64-1.16 3.82-1.18 4.38-1.18 2 0 3.42.6 4.08 1.02.46.28.94.72 1.26 1.16.14.2.26.4.38.62l2.14-.46c-.18-.32-.52-.94-1.16-1.62-.6-.62-1.18-1-1.46-1.18-2.04-1.24-4.66-1.3-5.32-1.3-.54 0-2.8.04-4.62.96-.56.28-1.14.68-1.64 1.1-.56.5-.82.82-1.02 1.12-1.2 1.66-1.24 3.52-1.24 4.2 0 2.1.62 3.32 1.12 4.08.4.64.84 1.08 1.04 1.28.32.28.6.5.96.74 1 .64 2.64 1.42 5.44 1.42h.151c1.083-.007 4.867-.138 7.049-2.7zm16.84 2.34v-1.74h-11.54v-4.76h10.74v-1.68h-10.74v-4.2h11.02V59h-13.02v14.12h13.54zm4.2 0-.04-11.68 11.06 11.68h1.96V59h-1.92l.06 11.66L138.94 59h-2.06v14.12h1.92zm22.78 0V60.68h5.78V59h-13.54v1.68h5.76v12.44h2zm21.36 0v-1.74H171.4v-4.76h10.74v-1.68H171.4v-4.2h11.02V59H169.4v14.12h13.54zm4.3 0v-5.66h6.82l4.78 5.66h2.62l-5.22-5.98c.8-.12 1.18-.24 1.54-.38 2.12-.88 2.28-2.86 2.28-3.62 0-1.94-1.08-3.42-2.98-3.92-.6-.16-1.04-.22-2.24-.22h-9.62v14.12h2.02zm7.152-7.32h-7.172v-5.12h7.76c1.1 0 2.04.1 2.64 1.16.34.58.36 1.12.36 1.38 0 .82-.32 1.3-.52 1.54-.737.944-1.973 1.033-3.068 1.04zM38.5 0C59.763 0 77 17.237 77 38.5S59.763 77 38.5 77 0 59.763 0 38.5 17.237 0 38.5 0zm.814 55.219h-.08c-.574 0-2.979.042-4.915 1.016a9.27 9.27 0 0 0-1.745 1.165c-.595.53-.872.869-1.085 1.186-1.276 1.759-1.319 3.729-1.319 4.449 0 2.224.66 3.516 1.192 4.321.425.678.893 1.144 1.106 1.356.34.297.638.53 1.021.784 1.064.678 2.809 1.504 5.788 1.504.872 0 5.212 0 7.66-2.86.297-.36.574-.741 1.063-1.61l-2.255-.466c-.256.445-.468.763-.83 1.144-1.577 1.72-4.032 1.906-5.055 1.925h-.646c-.35-.006-.889-.027-1.405-.103-.639-.106-2.852-.508-4.192-2.246-1.128-1.461-1.191-3.156-1.191-3.77 0-2.119.808-3.305 1.383-3.92.361-.402.68-.656.85-.762 1.745-1.228 4.064-1.25 4.66-1.25 2.128 0 3.638.636 4.34 1.08.49.297 1 .763 1.341 1.23.149.211.277.423.404.656l2.277-.487c-.192-.34-.553-.996-1.234-1.716a8.493 8.493 0 0 0-1.553-1.25c-2.096-1.268-4.766-1.37-5.58-1.376zm-.165-23.748c-3.553 0-5.745 1.504-6.766 2.458-.383.36-.68.72-.979 1.165-1.127 1.695-1.234 3.453-1.234 4.173 0 2.288.958 3.855 1.468 4.533.915 1.25 3.085 3.326 7.128 3.326 2.745 0 4.702-.932 5.553-1.525a7.72 7.72 0 0 0 1-.869v2.055h1.851v-7.88h-8.404v1.78h6.617c-.106.74-.192 1.25-.596 1.927-1.127 1.843-3.468 2.733-5.553 2.733-.787 0-3.66-.127-5.425-2.267-.873-1.038-1.362-2.563-1.362-3.898 0-2.627 1.532-4.575 3.979-5.423a9.18 9.18 0 0 1 2.872-.466c2.553 0 4.17 1.102 4.893 1.758.447.424.66.784.809.996l2.085-.635c-.404-.742-.553-.911-.894-1.271-.34-.382-.936-.954-2.02-1.504-2.128-1.102-4.171-1.166-5.022-1.166zM40.064 8h-2.277L30 22.956h2.404l1.83-3.686h9.234l1.83 3.686h2.468L40.064 8zm-1.192 2.14 3.681 7.414h-7.425l3.744-7.414z"/></svg>