<?xml version="1.0" encoding="UTF-8"?><svg id="Layer_2" xmlns="http://www.w3.org/2000/svg" viewBox="0 0 41.67 41.67"><defs><style>.cls-1{fill:#fff;}.cls-2{fill:#1677f0;}</style></defs><g id="Layer_1-2"><g><rect class="cls-2" x="0" width="41.67" height="41.67" rx="8.54" ry="8.54"/><g><path class="cls-2" d="M41.67,20.84C41.67,9.33,32.34,0,20.84,0S0,9.33,0,20.84c0,10.4,7.62,19.02,17.58,20.58v-14.56h-5.29v-6.02h5.29v-4.59c0-5.22,3.11-8.11,7.87-8.11,2.28,0,4.66,.41,4.66,.41v5.13h-2.63c-2.59,0-3.4,1.61-3.4,3.25v3.91h5.78l-.92,6.02h-4.85v14.56c9.96-1.56,17.58-10.18,17.58-20.58Z"/><path class="cls-1" d="M31.49,25.49l1.01-6.58h-6.31v-4.27c0-1.8,.88-3.55,3.71-3.55h2.87V5.48s-2.6-.44-5.1-.44c-5.2,0-8.6,3.15-8.6,8.86v5.01h-5.78v6.58h5.78v15.91c1.16,.18,2.35,.28,3.56,.28s2.4-.09,3.56-.28v-15.91h5.3Z"/></g></g></g></svg>