<svg xmlns="http://www.w3.org/2000/svg" xmlns:xlink="http://www.w3.org/1999/xlink" width="18" height="19" viewBox="0 0 18 19"><defs><path id="kugzr9fr3a" d="M0 .008h17.976V9H0z"/></defs><g fill="none" fill-rule="evenodd"><path fill="#FFF" d="M12.968 5a3.973 3.973 0 0 1-4.172 3.963A3.973 3.973 0 0 1 5.032 5a3.973 3.973 0 0 1 4.172-3.963A3.973 3.973 0 0 1 12.968 5M9 10c2.757 0 5-2.243 5-5s-2.243-5-5-5-5 2.243-5 5 2.243 5 5 5"/><g transform="translate(0 10)"><mask id="f12813u4bb" fill="#fff"><use xlink:href="#kugzr9fr3a"/></mask><path fill="#FFF" d="M1.047 3.793c0-1.518 1.25-2.752 2.788-2.752H14.14c1.538 0 2.79 1.234 2.79 2.752v4.174H1.046V3.793zM14.14.008H3.835C1.721.008 0 1.706 0 3.793v4.69A.52.52 0 0 0 .523 9h16.93a.52.52 0 0 0 .523-.517v-4.69c0-2.087-1.72-3.785-3.836-3.785z" mask="url(#f12813u4bb)"/></g></g></svg>