<svg xmlns="http://www.w3.org/2000/svg" xmlns:xlink="http://www.w3.org/1999/xlink" width="28" height="33" viewBox="0 0 28 33"><defs><path id="axkx5vr9ya" d="M0 .01h27.972v24.38H0z"/></defs><g fill="none" fill-rule="evenodd"><path fill="#6083E0" d="m9.646 4.89 3.724-3.724.519-.519c.344-.345-.19-.883-.535-.534L9.63 3.836l-.519.519c-.344.34.19.879.535.534"/><path fill="#6083E0" d="M18.889 4.353 15.166.63l-.52-.519c-.344-.344-.882.19-.533.534l3.723 3.723.519.52c.344.348.878-.19.534-.535"/><path fill="#6083E0" d="M13.985 19.663V2.706c0-.778.034-1.56 0-2.337V.337c0-.45-.97-.45-.97 0v16.957c0 .778-.034 1.56 0 2.337v.032c0 .45.97.45.97 0"/><g transform="translate(0 8)"><mask id="wzhp2gl4pb" fill="#fff"><use xlink:href="#axkx5vr9ya"/></mask><path fill="#6083E0" d="M7.089.02h-1.86c-.692 0-1.422-.05-2.103.087C1.94.35.893 1.163.38 2.237A4.174 4.174 0 0 0 0 4.044v16.459a3.865 3.865 0 0 0 1.263 2.848 4.07 4.07 0 0 0 2.715 1.038H22.04c.648 0 1.3.003 1.948 0a4.073 4.073 0 0 0 2.681-1.005 3.878 3.878 0 0 0 1.3-2.878c.004-.671 0-1.342 0-2.014V4.051c0-.617-.104-1.208-.363-1.77-.489-1.075-1.522-1.895-2.689-2.16-.692-.156-1.433-.101-2.14-.101h-1.782c-.478 0-.478.726 0 .726h1.819c.655 0 1.363-.062 2.003.101 1.048.269 1.922 1.06 2.256 2.076.13.402.16.805.16 1.219v16.364a3.161 3.161 0 0 1-1.23 2.49 3.373 3.373 0 0 1-2.052.667H3.98c-.83 0-1.63-.298-2.237-.856a3.158 3.158 0 0 1-1.01-2.315c-.004-.704 0-1.408 0-2.108V5.1c0-.802-.075-1.648.24-2.41C1.396 1.682 2.352.967 3.437.782c.267-.044.537-.036.807-.036h2.841c.482 0 .482-.726.004-.726" mask="url(#wzhp2gl4pb)"/></g></g></svg>