<svg width="75" height="77" viewBox="0 0 75 77" xmlns="http://www.w3.org/2000/svg" xmlns:xlink="http://www.w3.org/1999/xlink">
    <defs>
        <path id="syl8vg63ra" d="M0 0h57v32H0z"/>
        <path id="cl6l7t9k7c" d="M0 0h32v32H0z"/>
        <path id="svbqch3lge" d="M0 0h43v25H0z"/>
    </defs>
    <g fill="none" fill-rule="evenodd">
        <g transform="translate(0 17)">
            <mask id="h9lsuz0ulb" fill="#fff">
                <use xlink:href="#syl8vg63ra"/>
            </mask>
            <path d="M28.496 22.886c.314 0 .616.108.87.318.076.054 7.382 6.103 15.018 6.103 8.187 0 9.912-5.38 9.912-9.886V12.58c0-5.45-4.45-9.88-9.912-9.88H12.608c-5.462 0-9.907 4.43-9.907 9.88v6.842c0 6.837 3.056 9.886 9.907 9.886 8.182 0 14.91-6.011 14.98-6.076.259-.232.583-.345.908-.345M44.384 32c-7.041 0-13.53-4.295-15.856-6.033-2.233 1.76-8.42 6.033-15.92 6.033-8.366 0-12.61-4.23-12.61-12.579V12.58C-.003 5.645 5.653 0 12.607 0h31.776C51.338 0 57 5.645 57 12.579v6.842C57 27.42 52.398 32 44.384 32" fill="#1A1A1A" mask="url(#h9lsuz0ulb)"/>
        </g>
        <path d="M63.711 31c-.72 0-1.294-.58-1.294-1.294 0-4.844-1.884-9.388-5.306-12.814a18.026 18.026 0 0 0-12.822-5.304A1.29 1.29 0 0 1 43 10.294 1.29 1.29 0 0 1 44.289 9a20.57 20.57 0 0 1 14.644 6.065A20.57 20.57 0 0 1 65 29.706 1.29 1.29 0 0 1 63.711 31" fill="#1A1A1A"/>
        <g transform="translate(43)">
            <mask id="8w0esigl3d" fill="#fff">
                <use xlink:href="#cl6l7t9k7c"/>
            </mask>
            <path d="M30.652 32a1.35 1.35 0 0 1-1.354-1.353c0-7.466-2.907-14.482-8.187-19.755C15.832 5.613 8.815 2.706 1.348 2.706A1.35 1.35 0 0 1 0 1.353 1.35 1.35 0 0 1 1.348-.001C9.54 0 17.23 3.19 23.028 8.975 28.811 14.763 32 22.461 32 30.647A1.35 1.35 0 0 1 30.652 32" fill="#1A1A1A" mask="url(#8w0esigl3d)"/>
        </g>
        <path d="M48.784 28.5a4.29 4.29 0 0 1-4.284 4.293 4.29 4.29 0 0 1-4.284-4.293 4.29 4.29 0 0 1 4.284-4.293 4.29 4.29 0 0 1 4.284 4.293" fill="#EC5151"/>
        <g transform="translate(7 52)">
            <mask id="han7n6x4vf" fill="#fff">
                <use xlink:href="#svbqch3lge"/>
            </mask>
            <path d="M1.34 0c.746 0 1.341.595 1.341 1.327v7.927c0 7.22 5.932 13.092 13.225 13.092h11.188c7.288 0 13.225-5.872 13.225-13.092V2.511c0-.738.595-1.327 1.34-1.327.735 0 1.341.59 1.341 1.327v6.743c0 8.686-7.138 15.747-15.906 15.747H15.906C7.133 25.001 0 17.94 0 9.254V1.327C0 .595.6 0 1.34 0" fill="#1A1A1A" mask="url(#han7n6x4vf)"/>
        </g>
    </g>
</svg>
