<svg xmlns="http://www.w3.org/2000/svg" xmlns:xlink="http://www.w3.org/1999/xlink" width="91" height="95" viewBox="0 0 91 95"><defs><path id="93meas2pta" d="M0 0h18v24H0z"/><path id="f1li39kogc" d="M0 0h57v67H0z"/></defs><g fill="none" fill-rule="evenodd"><g transform="translate(12)"><mask id="7orkr9h7hb" fill="#fff"><use xlink:href="#93meas2pta"/></mask><path fill="#1A1A1A" d="M9.003 2.658c-3.54 0-6.412 2.96-6.412 6.583v5.509c0 3.63 2.872 6.589 6.412 6.589 3.534 0 6.41-2.96 6.41-6.589V9.241c0-3.624-2.876-6.583-6.41-6.583m0 21.342C4.037 24 0 19.849 0 14.75V9.241C0 4.143 4.037-.003 9.003-.003 13.963-.003 18 4.143 18 9.24v5.509C18 19.849 13.963 24 9.003 24" mask="url(#7orkr9h7hb)"/></g><g transform="translate(1 27)"><mask id="k9jorbntpd" fill="#fff"><use xlink:href="#f1li39kogc"/></mask><path fill="#1A1A1A" d="M11.139 64.318h17.749V11.997c0-.354.138-.697.388-.95.25-.246.59-.39.941-.39l14.882.005c6.191 0 8.292-5.304 8.962-7.98H15.543c-7.106 0-12.887 5.83-12.887 12.994v15.998c.042.466.547 4.982 5.829 5.636V16.877c0-.734.59-1.34 1.324-1.34.74 0 1.33.606 1.33 1.34v47.441zM30.217 67H9.81a1.328 1.328 0 0 1-1.324-1.34V40.002C2.198 39.39.177 34.457.002 31.765l-.006-16.089C-.004 7.031 6.974 0 15.543 0h40.124a1.342 1.342 0 0 1 1.325 1.49c-.463 4.104-3.537 11.848-11.893 11.848H31.547v52.321c0 .746-.59 1.341-1.33 1.341z" mask="url(#k9jorbntpd)"/></g><path fill="#1A1A1A" d="M21 94c-.834 0-1.5-.608-1.5-1.368V63.368c0-.75.666-1.368 1.5-1.368.828 0 1.5.619 1.5 1.368v29.264c0 .76-.672 1.368-1.5 1.368M88.65 60H40.655a1.356 1.356 0 0 1 0-2.71h46.647V14.71H34.35a1.356 1.356 0 0 1 0-2.71h54.302c.75 0 1.349.607 1.349 1.355v45.29c0 .753-.6 1.355-1.35 1.355"/><path fill="#EC5151" d="M73 17h12v38H73z"/></g></svg>