<svg xmlns="http://www.w3.org/2000/svg" xmlns:xlink="http://www.w3.org/1999/xlink" width="78" height="80" viewBox="0 0 78 80"><defs><path id="tcvyj3pmaa" d="M0 0h20v20H0z"/><path id="vxtz6m2goc" d="M0 0h20v20H0z"/><path id="qdry3ijrce" d="M0 0h20v20H0z"/></defs><g fill="none" fill-rule="evenodd" transform="translate(.996 .627)"><path fill="#1A1A1A" d="M46.024 30.09c-4.482 0-8.73 2.69-10.49 7.096a11.197 11.197 0 0 0 .109 8.634 11.183 11.183 0 0 0 6.176 6.026c5.78 2.31 12.354-.505 14.668-6.287 2.303-5.776-.516-12.356-6.296-14.665a11.154 11.154 0 0 0-4.167-.805zm-.033 25.283a13.92 13.92 0 0 1-5.177-1.006 13.872 13.872 0 0 1-7.665-7.476 13.893 13.893 0 0 1-.141-10.71c2.868-7.173 11.022-10.672 18.193-7.809 7.166 2.864 10.67 11.025 7.801 18.198-2.184 5.466-7.453 8.803-13.01 8.803z"/><g transform="translate(-.996 36.373)"><mask id="00fuvdkznb" fill="#fff"><use xlink:href="#tcvyj3pmaa"/></mask><path fill="#1A1A1A" d="M10.006 2.821a7.196 7.196 0 0 0-6.671 4.514c-1.463 3.672.328 7.858 4 9.326a7.143 7.143 0 0 0 5.49-.067 7.098 7.098 0 0 0 3.835-3.932c1.469-3.672-.328-7.858-4-9.327a7.087 7.087 0 0 0-2.654-.514M10 20a9.967 9.967 0 0 1-3.71-.717C1.171 17.238-1.33 11.408.707 6.284 2.764 1.166 8.594-1.33 13.706.714c5.123 2.045 7.626 7.875 5.58 12.993a9.94 9.94 0 0 1-5.349 5.48A9.95 9.95 0 0 1 10 20" mask="url(#00fuvdkznb)"/></g><g transform="translate(57.004 59.373)"><mask id="oyd0mhw3ld" fill="#fff"><use xlink:href="#vxtz6m2goc"/></mask><path fill="#1A1A1A" d="M10.004 2.827a7.195 7.195 0 0 0-6.67 4.512c-1.463 3.67.327 7.853 3.998 9.321a7.158 7.158 0 0 0 5.495-.067 7.132 7.132 0 0 0 3.835-3.93 7.113 7.113 0 0 0-.073-5.488 7.14 7.14 0 0 0-3.925-3.834 7.137 7.137 0 0 0-2.66-.514m-.006 17.176a9.997 9.997 0 0 1-3.71-.723C1.17 17.236-1.333 11.41.712 6.288A9.927 9.927 0 0 1 6.062.818 9.895 9.895 0 0 1 13.708.72a9.963 9.963 0 0 1 5.479 5.342 9.952 9.952 0 0 1 .096 7.65 9.945 9.945 0 0 1-5.349 5.471 9.957 9.957 0 0 1-3.936.819" mask="url(#oyd0mhw3ld)"/></g><g transform="translate(48.004 -.627)"><mask id="4jmm0h4l4f" fill="#fff"><use xlink:href="#qdry3ijrce"/></mask><path fill="#1A1A1A" d="M10.012 2.823c-2.846 0-5.552 1.712-6.67 4.515a7.123 7.123 0 0 0 .067 5.492 7.125 7.125 0 0 0 3.932 3.83 7.171 7.171 0 0 0 9.325-4c1.463-3.673-.328-7.854-4-9.323a7.084 7.084 0 0 0-2.654-.514zM9.99 20a9.887 9.887 0 0 1-3.694-.712A9.942 9.942 0 0 1 .81 13.943a9.991 9.991 0 0 1-.096-7.656C2.765 1.167 8.595-1.33 13.712.71c5.117 2.05 7.62 7.882 5.575 13.001C17.722 17.616 13.96 20 9.99 20z" mask="url(#4jmm0h4l4f)"/></g><path fill="#1A1A1A" d="M17.383 47.069c-.674 0-1.265-.54-1.365-1.29-.11-.822.415-1.578 1.172-1.698l15.237-2.388c.746-.12 1.447.456 1.563 1.266.105.822-.414 1.584-1.17 1.704L17.581 47.05a1.162 1.162 0 0 1-.199.018M50.39 31.373a1.41 1.41 0 0 1-.516-.1c-.712-.264-1.057-1.032-.768-1.706l5.216-12.364c.284-.674 1.09-1.006 1.807-.737.712.274 1.062 1.037.773 1.71l-5.221 12.37c-.217.51-.734.827-1.29.827M62.545 65.373c-.433 0-.86-.172-1.146-.5l-10.08-11.39c-.503-.574-.392-1.386.246-1.833.625-.443 1.549-.344 2.052.218L63.69 63.264c.497.568.392 1.38-.245 1.828a1.574 1.574 0 0 1-.9.28"/><circle cx="46.004" cy="41.373" r="7" fill="#EC5151"/></g></svg>