<svg xmlns="http://www.w3.org/2000/svg" xmlns:xlink="http://www.w3.org/1999/xlink" width="84" height="80" viewBox="0 0 84 80"><defs><path id="4fqy5bf5aa" d="M.035-.627h82v80h-82z"/></defs><g fill="none" fill-rule="evenodd" transform="translate(.965 .627)"><g><mask id="w91jssyrrb" fill="#fff"><use xlink:href="#4fqy5bf5aa"/></mask><path fill="#1A1A1A" d="m5.477 31.618 21.19 15.772c.47.345.668.963.487 1.52L19.058 74.43l21.195-15.773c.47-.344 1.1-.344 1.57 0L63.008 74.43l-8.09-25.518a1.376 1.376 0 0 1 .486-1.52l21.19-15.773H50.4c-.577 0-1.09-.383-1.266-.946L41.033 5.159l-8.09 25.513a1.34 1.34 0 0 1-1.272.946H5.477zm11.044 47.75c-.272 0-.55-.083-.785-.258a1.387 1.387 0 0 1-.48-1.531l9.056-28.565L.586 31.355A1.384 1.384 0 0 1 .1 29.83a1.339 1.339 0 0 1 1.265-.946h29.34L39.767.313c.176-.557.69-.94 1.266-.94.582 0 1.09.383 1.27.94l9.069 28.57H80.7c.577 0 1.09.383 1.271.946a1.392 1.392 0 0 1-.486 1.526l-23.732 17.66 9.063 28.564a1.387 1.387 0 0 1-.48 1.531c-.47.35-1.101.35-1.566 0L41.033 61.45 17.306 79.11a1.311 1.311 0 0 1-.785.257z" mask="url(#w91jssyrrb)"/></g><circle cx="40.035" cy="43.373" r="9" fill="#EC5151"/></g></svg>