<svg width="27" height="28" viewBox="0 0 27 28" xmlns="http://www.w3.org/2000/svg" xmlns:xlink="http://www.w3.org/1999/xlink">
    <defs>
        <path id="gqu1fmlosa" d="M0 .006h26.994V27H0z"/>
    </defs>
    <g fill="none" fill-rule="evenodd">
        <path d="m11.191 19.497.432-2.733 10.95-14.31c.33-.376.641-.575.9-.575.113 0 .252 0 .392.088l.958.686c.284.23.22.785-.15 1.29L13.659 18.37l-2.468 1.127zM10 21l4.29-1.987 11.178-14.6c.405-.491.592-1.079.515-1.61a1.302 1.302 0 0 0-.546-.91l-1.028-.636C24.16 1.082 23.845 1 23.414 1l-.018.001c-.542.058-1.074.386-1.498.925l-11.12 14.488L10 21z" fill="#6385E1"/>
        <g>
            <mask id="4lxg3w4igb" fill="#fff">
                <use xlink:href="#gqu1fmlosa"/>
            </mask>
            <path d="M26.112 8.152v15.865a2.046 2.046 0 0 1-2.043 2.044H2.925a2.046 2.046 0 0 1-2.043-2.044V2.931c0-1.126.916-2.043 2.043-2.043h16.039V.006H2.924A2.928 2.928 0 0 0 0 2.931v21.144A2.928 2.928 0 0 0 2.925 27h21.144a2.928 2.928 0 0 0 2.925-2.925V8.152h-.882z" fill="#6385E1" mask="url(#4lxg3w4igb)"/>
        </g>
    </g>
</svg>
