<svg width="19" height="16" viewBox="0 0 19 16" xmlns="http://www.w3.org/2000/svg">
    <path d="M16.814 7.89 9.514 15 2.211 7.89a3.963 3.963 0 0 1 0-5.705 4.147 4.147 0 0 1 2.902-1.17c1.078 0 2.125.41 2.903 1.17l1.257 1.229c.12.117.299.117.419 0l1.256-1.229a4.184 4.184 0 0 1 5.835 0 3.989 3.989 0 0 1 .03 5.705m.763-6.45C16.64.522 15.425.03 14.083.03c-1.341 0-2.557.491-3.493 1.41L9.53 2.484 8.437 1.41C7.502.49 6.285 0 4.944 0 3.603 0 2.386.49 1.45 1.41c-1.933 1.9-1.933 4.965 0 6.835l7.83 7.663a.286.286 0 0 0 .218.092c.094 0 .156-.03.218-.092l7.83-7.663a4.742 4.742 0 0 0 .03-6.804" fill="red" fill-rule="evenodd"/>
</svg>
