<svg xmlns="http://www.w3.org/2000/svg" width="30.956" height="30.956" viewBox="0 0 30.956 30.956"><g id="imgIcon" transform="translate(0 -0.044)"><g id="Group_1" data-name="Group 1"><path id="Path_1" fill-rule="evenodd" d="M27.38,29.933H3.576A2.47,2.47,0,0,1,1.121,27.9l7.525-9.713A1.647,1.647,0,0,1,9.714,17.6a1.41,1.41,0,0,1,1.174.427l2.829,2.828a2.545,2.545,0,0,0,3.629,0l.96-.96a1.485,1.485,0,0,1,2.029-.054l9.553,8.166a2.691,2.691,0,0,1-2.508,1.922ZM3.576,1.112h23.8A2.506,2.506,0,0,1,29.888,3.62v23l-8.913-7.632a2.61,2.61,0,0,0-3.469.107l-.96,1.014a1.451,1.451,0,0,1-2.082,0l-2.829-2.829a2.5,2.5,0,0,0-1.975-.747A2.641,2.641,0,0,0,7.792,17.55l-6.725,8.7V3.62A2.506,2.506,0,0,1,3.576,1.112ZM30.956,3.62A3.576,3.576,0,0,0,27.38.044H3.576A3.576,3.576,0,0,0,0,3.62V27.691a.68.68,0,0,0,.053.32A3.56,3.56,0,0,0,3.576,31h23.8A3.56,3.56,0,0,0,30.9,28.011a.68.68,0,0,0,.053-.32Z" data-name="Path 1"/></g><path id="Path_2" fill-rule="evenodd" d="M20,6.143a2.83,2.83,0,1,1-2.028.829A2.83,2.83,0,0,1,20,6.143M20,13a4,4,0,1,0-4-4,3.975,3.975,0,0,0,4,4" data-name="Path 2"/></g></svg>