<svg width="31" height="31" viewBox="0 0 31 31" xmlns="http://www.w3.org/2000/svg" xmlns:xlink="http://www.w3.org/1999/xlink">
    <defs>
        <path id="mebcu74yia" d="M0 .044h30.956V31H0z"/>
    </defs>
    <g fill="none" fill-rule="evenodd">
        <g>
            <mask id="5mp7d1bn2b" fill="#fff">
                <use xlink:href="#mebcu74yia"/>
            </mask>
            <path d="M27.38 29.933H3.576a2.47 2.47 0 0 1-2.455-2.029l7.525-9.713c.267-.32.64-.534 1.068-.587.427-.054.854.106 1.174.427l2.829 2.828a2.545 2.545 0 0 0 3.629 0l.96-.96c.534-.534 1.442-.588 2.029-.054l9.553 8.166c-.32 1.068-1.334 1.922-2.508 1.922zM3.576 1.112H27.38a2.506 2.506 0 0 1 2.508 2.508v23.003l-8.913-7.632a2.61 2.61 0 0 0-3.469.107l-.96 1.014c-.588.587-1.548.587-2.082 0l-2.829-2.829a2.496 2.496 0 0 0-1.975-.747c-.747.054-1.387.427-1.868 1.014l-6.725 8.7V3.62a2.506 2.506 0 0 1 2.509-2.508zm27.38 2.508A3.576 3.576 0 0 0 27.38.044H3.576A3.576 3.576 0 0 0 0 3.62V27.691c0 .107 0 .213.053.32C.32 29.72 1.815 31 3.576 31H27.38c1.761 0 3.256-1.28 3.523-2.989.053-.107.053-.213.053-.32V3.62z" fill="#878787" mask="url(#5mp7d1bn2b)"/>
        </g>
        <path d="M20 6.143A2.83 2.83 0 0 1 22.857 9 2.83 2.83 0 0 1 20 11.857 2.83 2.83 0 0 1 17.143 9 2.83 2.83 0 0 1 20 6.143M20 13c2.229 0 4-1.771 4-4s-1.771-4-4-4-4 1.771-4 4 1.771 4 4 4" fill="#878787"/>
    </g>
</svg>
