<?xml version="1.0" standalone="no"?>
<!DOCTYPE svg PUBLIC "-//W3C//DTD SVG 20010904//EN"
 "http://www.w3.org/TR/2001/REC-SVG-20010904/DTD/svg10.dtd">
<svg version="1.0" xmlns="http://www.w3.org/2000/svg"
 width="72.000000pt" height="75.000000pt" viewBox="0 0 72.000000 75.000000"
 preserveAspectRatio="xMidYMid meet">

<g transform="translate(0.000000,75.000000) scale(0.100000,-0.100000)"
fill="#000000" stroke="none">
<path d="M253 716 c-141 -46 -234 -159 -249 -302 -19 -177 92 -336 265 -380
170 -43 344 42 418 203 21 46 26 72 26 138 0 71 -4 92 -31 148 -59 127 -163
196 -304 203 -54 3 -98 -1 -125 -10z m239 -49 c56 -24 133 -100 159 -160 35
-79 34 -192 -4 -269 -96 -196 -368 -239 -521 -82 -110 113 -115 309 -12 430
86 100 249 135 378 81z"/>
<path d="M330 533 c-46 -18 -50 -31 -50 -158 0 -114 1 -123 23 -143 13 -13 36
-22 54 -22 40 0 83 34 83 66 0 33 -21 30 -42 -6 -19 -33 -48 -39 -72 -14 -13
12 -16 38 -16 118 0 112 6 126 53 126 23 0 31 -6 40 -30 13 -33 30 -35 35 -3
6 42 -62 84 -108 66z"/>
</g>
</svg>
