<svg xmlns="http://www.w3.org/2000/svg" width="23.892" height="23.627" viewBox="0 0 23.892 23.627">
  <path id="invalidName" d="M11.913,24.264a12.07,12.07,0,0,0,6.1-1.567,11.472,11.472,0,0,0,4.306-4.274,11.63,11.63,0,0,0,1.568-5.94,11.8,11.8,0,0,0-1.567-5.99A11.436,11.436,0,0,0,18.018,2.2,12.09,12.09,0,0,0,11.913.637,11.916,11.916,0,0,0,5.858,2.2a11.471,11.471,0,0,0-4.29,4.29A11.764,11.764,0,0,0,0,12.484a11.644,11.644,0,0,0,1.567,5.94A11.508,11.508,0,0,0,5.857,22.7a11.919,11.919,0,0,0,6.056,1.567Zm0-1.188a10.667,10.667,0,0,1-5.429-1.419,10.459,10.459,0,0,1-5.263-9.174A10.612,10.612,0,0,1,2.624,7.1a10.324,10.324,0,0,1,3.86-3.86,10.66,10.66,0,0,1,5.429-1.42,10.714,10.714,0,0,1,5.461,1.42A10.324,10.324,0,0,1,21.236,7.1a10.61,10.61,0,0,1,1.4,5.38,10.545,10.545,0,0,1-1.4,5.345,10.2,10.2,0,0,1-3.862,3.845,10.821,10.821,0,0,1-5.461,1.4Zm.033-5.049a2.825,2.825,0,0,0,2.013-.71,2.391,2.391,0,0,0,.759-1.83v-.232a.292.292,0,0,0-.33-.33l-.528-.033a.292.292,0,0,0-.33.33v.33a1.327,1.327,0,0,1-.429,1.023,1.636,1.636,0,0,1-1.155.4,1.636,1.636,0,0,1-1.155-.4,1.329,1.329,0,0,1-.429-1.023V9.546a1.277,1.277,0,0,1,.429-1.006,1.68,1.68,0,0,1,1.155-.38,1.68,1.68,0,0,1,1.155.38,1.277,1.277,0,0,1,.429,1.006v.33a.292.292,0,0,0,.33.33l.528-.033a.292.292,0,0,0,.33-.33v-.23A2.343,2.343,0,0,0,13.959,7.8,2.87,2.87,0,0,0,11.946,7.1a2.8,2.8,0,0,0-1.963.677A2.35,2.35,0,0,0,9.24,9.612v5.874a2.4,2.4,0,0,0,.743,1.848,2.761,2.761,0,0,0,1.963.693Z" transform="translate(0 -0.637)"/>
</svg>
