<svg width="33" height="28" viewBox="0 0 33 28" xmlns="http://www.w3.org/2000/svg" xmlns:xlink="http://www.w3.org/1999/xlink">
    <defs>
        <path id="obr47wxr2a" d="M0 0h33v28H0z"/>
    </defs>
    <g fill="none" fill-rule="evenodd">
        <mask id="ienwy32fub" fill="#fff">
            <use xlink:href="#obr47wxr2a"/>
        </mask>
        <path d="M3.452.93a.593.593 0 0 0-.585.597v2.18c0 .24.141.457.36.55l18.646.001c.117.002.234.017.347.046h1.609a.594.594 0 0 0 .586-.598V1.527A.594.594 0 0 0 23.83.93H3.452zm17.249 7.587c.065 0 .13.016.189.045h.983a.593.593 0 0 0 .586-.597v-2.18a.597.597 0 0 0-.36-.55L3.452 5.233a1.457 1.457 0 0 1-.346-.046h-1.61a.594.594 0 0 0-.585.598v2.179c0 .329.263.597.586.598h3.118a1.94 1.94 0 0 1 .41-.046h15.676zm-15.962.976a1.06 1.06 0 0 0-.752 1.014v1.254c.001.472.314.89.76 1.014h10.791l.006.001.01.002h.007a9.688 9.688 0 0 1 3.71-3.266l-.004-.019H4.739zm-2.083 4.212c-.572 0-1.038.476-1.039 1.06v1.255c.001.584.467 1.059 1.039 1.06h1.556c.007-.002.012-.002.017-.002l.018-.002c.119-.026.24-.04.362-.042h9.372l.002-.009a9.778 9.778 0 0 1 1-3.259l.008-.014-9.966-.001a1.841 1.841 0 0 1-.362-.042l-.018-.002c-.005 0-.01 0-.015-.002H2.656zM4.32 18.01a1.062 1.062 0 0 0-.75 1.013v1.255a1.066 1.066 0 0 0 1.038 1.06h9.782l-.004-.014a9.856 9.856 0 0 1-.49-3.06c0-.046.004-.09.007-.135.002-.036.005-.072.006-.109v-.01H4.32zm-1.665 4.212c-.572.001-1.038.477-1.038 1.06v1.255c0 .584.466 1.06 1.038 1.06h14.52l-.018-.019a9.708 9.708 0 0 1-2.404-3.304l-.003-.006H4.609c-.133 0-.266-.016-.395-.045H2.656zM23.447 9.447c-4.763 0-8.638 3.955-8.638 8.816 0 2.355.898 4.57 2.53 6.235a8.495 8.495 0 0 0 6.108 2.582c4.758-.005 8.633-3.96 8.639-8.817 0-4.861-3.875-8.816-8.639-8.816zM23.443 28a9.378 9.378 0 0 1-5.033-1.472l-15.754-.002c-1.074-.001-1.948-.893-1.95-1.989v-1.255c.002-1.095.876-1.988 1.95-1.99h.279l-.008-.015a2.005 2.005 0 0 1-.267-.999v-1.254c0-.351.093-.697.267-.999l.008-.014-.28-.002c-1.073-.001-1.947-.894-1.948-1.99v-1.254c.001-1.096.875-1.988 1.949-1.99h.695l-.007-.015a2.005 2.005 0 0 1-.268-.999v-1.254c.002-.352.097-.697.273-.999l.009-.014-1.861-.002C.672 9.492 0 8.806 0 7.964V5.786c.001-.841.673-1.527 1.497-1.528h.564l-.004-.014a1.536 1.536 0 0 1-.1-.538V1.527c0-.84.671-1.526 1.495-1.527H23.83c.824.001 1.496.686 1.497 1.527v2.18c-.001.84-.673 1.526-1.497 1.527h-.564l.004.014c.066.172.1.353.1.538v2.179a1.535 1.535 0 0 1-.103.546l-.005.014h.015c.027 0 .054-.002.08-.004.031-.002.06-.004.091-.004 1.788 0 3.533.509 5.048 1.47 2.165 1.375 3.675 3.528 4.253 6.062a9.846 9.846 0 0 1-1.192 7.356 9.63 9.63 0 0 1-3.54 3.41A9.456 9.456 0 0 1 23.445 28z" fill="#878787" mask="url(#ienwy32fub)"/>
    </g>
</svg>
